<svg width="35" height="40" viewBox="0 0 35 40" fill="none" xmlns="http://www.w3.org/2000/svg">
<path d="M32.8935 8.74546L19.2617 0.505398C18.1567 -0.161427 16.7754 -0.170953 15.6609 0.486346L1.72422 8.73593C0.657299 9.37418 0 10.5268 0 11.7652V27.3023C0 28.5883 0.70493 29.7695 1.83853 30.3792L13.527 36.7045C13.7271 37.7238 14.4415 38.7431 16.0133 39.6576C16.4134 39.8862 16.8516 40.0005 17.2994 40.0005C17.7376 40.0005 18.1853 39.8862 18.5854 39.6576C20.1858 38.7335 20.9002 37.6952 21.0812 36.6569L32.7602 30.303C33.8938 29.6838 34.5987 28.5025 34.5987 27.2165V11.7557C34.5987 10.5268 33.9414 9.37418 32.8935 8.74546ZM10.593 22.9774L14.7178 25.3304C15.718 25.9019 16.2991 26.8545 16.2991 27.9214V30.0362L12.1743 27.6833C11.1741 27.1117 10.593 26.1591 10.593 25.0922V22.9774ZM9.58323 20.0243C7.9638 19.1003 7.02072 17.5571 7.02072 15.8329V12.413L13.689 16.2139C15.3084 17.1379 16.2515 18.6812 16.2515 20.4054V23.8252L9.58323 20.0243ZM21.005 22.4344L27.6733 18.6335V22.0534C27.6733 23.7776 26.7302 25.3208 25.1107 26.2449L18.4425 30.0458V26.6259C18.4425 24.8922 19.3856 23.3489 21.005 22.4344ZM18.614 21.901V19.7862C18.614 18.7193 19.195 17.7667 20.1953 17.1951L24.3201 14.8421V16.9569C24.3201 18.0239 23.739 18.9765 22.7387 19.548L18.614 21.901ZM32.5982 27.2165C32.5982 27.769 32.2934 28.2834 31.8076 28.5502L20.7954 34.5421C20.4906 33.8086 20.0143 33.1132 19.5094 32.5225L28.9212 27.3213C29.9405 26.7593 30.5787 25.6733 30.5787 24.5111V13.8419C30.5787 12.6702 29.9405 11.5938 28.9212 11.0317L19.0522 5.56375C18.0805 5.03029 16.9088 5.03029 15.9371 5.56375L6.08716 11.0222C5.06787 11.5842 4.42963 12.6702 4.42963 13.8324V24.5016C4.42963 25.6733 5.06787 26.7497 6.08716 27.3118L15.2227 32.3606C14.6606 32.9988 14.1176 33.7609 13.7938 34.5706L2.79114 28.6264C2.30531 28.3596 2.00048 27.8548 2.00048 27.3118V11.7652C2.00048 11.2318 2.28626 10.7269 2.74351 10.4601L16.6706 2.21057C16.9088 2.06768 17.1755 2.00099 17.4422 2.00099C17.709 2.00099 17.9852 2.0772 18.2234 2.22009L31.8647 10.4506C32.3125 10.7269 32.5982 11.2222 32.5982 11.7462V27.2165Z" fill="url(#paint0_linear_26_19910)"/>
<defs>
<linearGradient id="paint0_linear_26_19910" x1="17.2983" y1="43.7884" x2="17.2983" y2="-12.816" gradientUnits="userSpaceOnUse">
<stop offset="0.2198" stop-color="#B490CA"/>
<stop offset="0.6161" stop-color="#7FC6D7"/>
<stop offset="0.8425" stop-color="#5EE7DF"/>
</linearGradient>
</defs>
</svg>
